# xmcd CD database file
#
# Track frame offsets:
#	150
#	21574
#	44676
#	66621
#	86568
#	122020
#
# Disc length: 2023 seconds
#
# Revision: 3
# Processed by: cddbd v1.5PL3 Copyright (c) Steve Scherf et al.
# Submitted via: CDex 1.50
#
DISCID=5807e506
DTITLE=The Fiasco - Live At The Crocodile Cafe
DYEAR=2004
DGENRE=Blues
TTITLE0=This Is The Life
TTITLE1=Vegas
TTITLE2=Someone Else
TTITLE3=Long Night
TTITLE4=Memphis
TTITLE5=Lets Get It On
EXTD=YEAR: 2004
EXTT0=
EXTT1=
EXTT2=
EXTT3=
EXTT4=
EXTT5=
PLAYORDER=
